<svg width="271" height="40" viewBox="0 0 271 40" fill="none" xmlns="http://www.w3.org/2000/svg">
<rect y="5" width="266" height="35" fill="#28C6B3"/>
<rect x="5.5" y="0.5" width="265" height="34" stroke="black"/>
<g filter="url(#filter0_d)">
<path d="M23.2539 18.0469L26.125 25.6758L28.9893 18.0469H31.2246V28H29.502V24.7188L29.6729 20.3301L26.7334 28H25.4961L22.5635 20.3369L22.7344 24.7188V28H21.0117V18.0469H23.2539ZM39.373 18.0469H41.1025V28H39.373V20.9111L35.0049 28H33.2754V18.0469H35.0049V25.1426L39.373 18.0469ZM46.1201 23.7344H44.9443V28H43.2217V18.0469H44.9443V22.2305H45.8945L48.8203 18.0469H50.9395L47.5215 22.8115L51.2402 28H49.1621L46.1201 23.7344ZM55.7793 23.249L57.7754 18.0469H59.6963L56.2305 26.3047L55.916 26.9268C55.4603 27.738 54.722 28.1436 53.7012 28.1436L52.9902 28.1025L53.0039 26.7354C53.1133 26.7536 53.307 26.7627 53.585 26.7627C54.0771 26.7627 54.4235 26.5531 54.624 26.1338L54.9795 25.293L51.5752 18.0469H53.4619L55.7793 23.249ZM68.3301 19.4414H65.2266V28H63.5107V19.4414H60.4346V18.0469H68.3301V19.4414ZM75.7402 18.0469H77.4697V28H75.7402V20.9111L71.3721 28H69.6426V18.0469H71.3721V25.1426L75.7402 18.0469ZM87.4434 28H85.7207V23.5771H81.2705V28H79.541V18.0469H81.2705V22.1895H85.7207V18.0469H87.4434V28ZM95.1885 25.6826H91.333L90.5264 28H88.7285L92.4883 18.0469H94.04L97.8066 28H96.002L95.1885 25.6826ZM91.8184 24.2881H94.7031L93.2607 20.1592L91.8184 24.2881ZM107.999 25.6826H104.144L103.337 28H101.539L105.299 18.0469H106.851L110.617 28H108.812L107.999 25.6826ZM104.629 24.2881H107.514L106.071 20.1592L104.629 24.2881ZM119.654 28H117.932V23.5771H113.481V28H111.752V18.0469H113.481V22.1895H117.932V18.0469H119.654V28ZM129.607 28H127.885V23.5771H123.435V28H121.705V18.0469H123.435V22.1895H127.885V18.0469H129.607V28ZM137.353 25.6826H133.497L132.69 28H130.893L134.652 18.0469H136.204L139.971 28H138.166L137.353 25.6826ZM133.982 24.2881H136.867L135.425 20.1592L133.982 24.2881Z" fill="white"/>
</g>
<defs>
<filter id="filter0_d" x="17.0117" y="18.0469" width="126.959" height="18.0967" filterUnits="userSpaceOnUse" color-interpolation-filters="sRGB">
<feFlood flood-opacity="0" result="BackgroundImageFix"/>
<feColorMatrix in="SourceAlpha" type="matrix" values="0 0 0 0 0 0 0 0 0 0 0 0 0 0 0 0 0 0 127 0"/>
<feOffset dy="4"/>
<feGaussianBlur stdDeviation="2"/>
<feColorMatrix type="matrix" values="0 0 0 0 0 0 0 0 0 0 0 0 0 0 0 0 0 0 0.25 0"/>
<feBlend mode="normal" in2="BackgroundImageFix" result="effect1_dropShadow"/>
<feBlend mode="normal" in="SourceGraphic" in2="effect1_dropShadow" result="shape"/>
</filter>
</defs>
</svg>
